<?xml version="1.0" standalone="no"?><!DOCTYPE svg PUBLIC "-//W3C//DTD SVG 1.1//EN" "http://www.w3.org/Graphics/SVG/1.1/DTD/svg11.dtd"><svg fill="#2aad95" t="1498397729251" class="icon" style="" viewBox="0 0 1024 1024" version="1.1" xmlns="http://www.w3.org/2000/svg" p-id="2410" xmlns:xlink="http://www.w3.org/1999/xlink" width="64" height="64"><defs><style type="text/css"></style></defs><path d="M958.89726 912.49851c0 14.759145-12.072967 26.731828-26.732851 26.731828H91.221608c-14.759145 0-26.731828-12.066827-26.731828-26.731828 0-14.759145 12.066827-26.732851 26.731828-26.732851h840.937684c14.665001-0.005117 26.737968 11.972683 26.737968 26.732851zM155.13322 803.052842l57.741075-208.498638L707.278545 100.244099c22.931269-22.931269 52.633754-22.744004 75.376735 0l113.067148 113.062031c22.744004 22.741957 22.931269 52.355415 0 75.376735L401.590378 783.186376l-208.676693 57.735959c-28.777417 6.039553-43.719734-8.908904-37.780465-37.869493z m495.705895-570.81043l113.067149 112.974027 75.376734-75.376734c19.586081-19.401886 18.288528-19.21462 0-37.685298l-75.376734-75.28873c-17.822924-19.212574-19.586081-19.212574-37.690414 0l-75.376735 75.376735zM292.523333 590.565357l113.062032 113.067148 320.630485-320.630484-113.062032-113.062032-320.630485 320.625368z m-80.296791 193.268771l155.668409-42.61047-113.062032-113.062032-42.606377 155.672502z" p-id="2411"></path></svg>