<?xml version="1.0" standalone="no"?><!DOCTYPE svg PUBLIC "-//W3C//DTD SVG 1.1//EN" "http://www.w3.org/Graphics/SVG/1.1/DTD/svg11.dtd"><svg t="1498319779876" class="icon" style="" viewBox="0 0 1024 1024" version="1.1" xmlns="http://www.w3.org/2000/svg" p-id="5609" xmlns:xlink="http://www.w3.org/1999/xlink" width="64" height="64"><defs><style type="text/css"></style></defs><path d="M511.38704 951.479313c-247.110027 0-448.149786-201.039759-448.149786-448.149786S264.277012 55.180763 511.38704 55.180763s448.13853 201.039759 448.13853 448.149786S758.496044 951.479313 511.38704 951.479313zM511.38704 77.041654c-235.05855 0-426.288896 191.230346-426.288896 426.288896s191.230346 426.288896 426.288896 426.288896c235.048317 0 426.27764-191.230346 426.27764-426.288896S746.434334 77.041654 511.38704 77.041654z" p-id="5610" fill="#ffffff"></path><path d="M697.087439 699.972139c-2.796696 0-5.593392-1.067308-7.728008-3.201925L317.947376 325.346903c-4.269233-4.269233-4.269233-11.186783 0-15.456017 4.269233-4.269233 11.186783-4.269233 15.456017 0l371.412055 371.422288c4.269233 4.269233 4.269233 11.186783 0 15.456017C702.68083 698.904831 699.884135 699.972139 697.087439 699.972139z" p-id="5611" fill="#ffffff"></path><path d="M325.675384 699.972139c-2.796696 0-5.593392-1.067308-7.728008-3.201925-4.269233-4.269233-4.269233-11.186783 0-15.456017L689.35943 309.890886c4.269233-4.269233 11.186783-4.269233 15.456017 0 4.269233 4.269233 4.269233 11.186783 0 15.456017L333.403392 696.770214C331.268776 698.904831 328.47208 699.972139 325.675384 699.972139z" p-id="5612" fill="#ffffff"></path></svg>