<?xml version="1.0" standalone="no"?><!DOCTYPE svg PUBLIC "-//W3C//DTD SVG 1.1//EN" "http://www.w3.org/Graphics/SVG/1.1/DTD/svg11.dtd"><svg fill="#ff6600" t="1498397721200" class="icon" style="" viewBox="0 0 1024 1024" version="1.1" xmlns="http://www.w3.org/2000/svg" p-id="2218" xmlns:xlink="http://www.w3.org/1999/xlink" width="64" height="64"><defs><style type="text/css"></style></defs><path d="M802.639872 876.803072c-7.51616 0-15.072256-1.173504-22.464512-3.544064l-238.27968-74.187776c0 0-25.224192-11.640832-15.53408-42.274816 8.962048-28.335104 36.226048-23.959552 36.226048-23.959552l238.741504 74.336256c0.828416 0.270336 1.890304 0.422912 3.449856-0.453632l0.113664-0.063488c2.761728-1.54112 5.082112-5.040128 6.280192-9.430016l134.19008-684.804096L89.947136 558.133248l239.7184 77.205504c0 0 33.053696 14.957568 23.800832 46.185472-8.383488 28.295168-45.396992 19.759104-45.396992 19.759104L51.334144 618.599424C10.52672 606.005248 4.996096 574.386176 4.274176 564.97664c-1.953792-24.98048 12.27776-47.485952 38.112256-60.307456L938.359808 37.824512c16.893952-9.885696 35.97824-10.647552 52.580352-2.046976 9.037824 4.685824 37.480448 23.49568 26.466304 69.843968L878.925824 812.32384l-0.192512 0.784384c-5.72416 23.3984-20.299776 43.121664-39.994368 54.122496C827.429888 873.57952 815.087616 876.803072 802.639872 876.803072z" p-id="2219"></path><path d="M448.871424 970.602496c0 0 0 30.989312-35.412992 30.989312-32.382976 0-33.978368-30.989312-33.978368-30.989312L379.480064 777.479168c0-17.138688 2.485248-48.774144 19.131392-68.094976L883.841024 144.0768c29.406208-36.400128 50.646016-62.2336 63.131648-76.783616 4.337664-5.054464 7.499776-8.605696 9.667584-10.857472 15.003648-15.58016 31.336448-12.192768 37.663744-10.013696l-22.601728 65.60768c14.157824 4.876288 28.048384-0.473088 34.967552-7.507968-0.961536 0.976896-11.06432 11.619328-69.174272 83.559424l-0.661504 0.796672L452.143104 753.55648c-1.063936 2.541568-3.272704 10.555392-3.272704 23.922688L448.8704 970.602496z" p-id="2220"></path></svg>