<?xml version="1.0" standalone="no"?><!DOCTYPE svg PUBLIC "-//W3C//DTD SVG 1.1//EN" "http://www.w3.org/Graphics/SVG/1.1/DTD/svg11.dtd"><svg t="1498399190804" class="icon" style="" viewBox="0 0 1025 1024" version="1.1" xmlns="http://www.w3.org/2000/svg" p-id="2837" xmlns:xlink="http://www.w3.org/1999/xlink" width="64.0625" height="64"><defs><style type="text/css"></style></defs><path d="M511.997952 0C229.22671 0 0 229.232854 0 512.002048s229.22671 511.997952 511.997952 511.997952c0.247806 0 0.491516-0.008192 0.733178-0.008192l511.254534 0L1023.985664 512.97484c0-0.323581 0.016384-0.649211 0.016384-0.972792C1024.004096 229.232854 794.767146 0 511.997952 0zM725.336405 767.997952 298.663595 767.997952c-23.564099 0-42.667691-19.101543-42.667691-42.667691 0-85.329237 82.46206-164.95484 166.779594-196.45078-48.699002-30.05416-81.442164-83.455332-81.442164-144.878457l0-42.667691c0-94.260494 76.408221-170.666667 170.662571-170.666667 94.260494 0 170.666667 76.408221 170.666667 170.666667l0 42.667691c0 61.423125-32.743162 114.824297-81.442164 144.878457 84.317533 31.49594 166.779594 111.121543 166.779594 196.45078C768.002048 748.896409 748.900505 767.997952 725.336405 767.997952z" p-id="2838" fill="#cddc39"></path></svg>