<?xml version="1.0" standalone="no"?><!DOCTYPE svg PUBLIC "-//W3C//DTD SVG 1.1//EN" "http://www.w3.org/Graphics/SVG/1.1/DTD/svg11.dtd"><svg t="1498575354765" class="icon" style="" viewBox="0 0 1024 1024" version="1.1" xmlns="http://www.w3.org/2000/svg" p-id="2304" xmlns:xlink="http://www.w3.org/1999/xlink" width="64" height="64"><defs><style type="text/css"></style></defs><path d="M519.936256 954.112a33.024 33.024 0 0 1-30.72 0l-397.312-209.8176 149.1456-78.2336 217.344 115.2a98.4576 98.4576 0 0 0 92.3648 0l217.1392-115.1488 149.2992 79.4624-397.312 208.5376zM237.517056 433.2544l220.928 116.736a99.0208 99.0208 0 0 0 92.2624 0l220.672-116.6336 145.664 78.9504-397.2608 210.5344a32.4608 32.4608 0 0 1-30.464 0l-397.2608-212.48L237.568256 433.2544z m710.4 252.5696l-109.1072-57.2416 109.1584-57.856c21.9648-11.6224 35.584-34.3552 35.584-59.392 0-25.0368-13.6192-47.8208-35.584-59.392L842.240256 395.8784l105.728-55.9104c21.9648-11.6224 35.584-34.304 35.584-59.392 0-24.9856-13.6704-47.6672-35.584-59.2896L550.707456 11.264a100.352 100.352 0 0 0-92.2624 0L61.133056 221.2864C39.219456 232.96 25.600256 255.6416 25.600256 280.6272s13.6192 47.7184 35.5328 59.392L166.912256 395.8272 61.133056 451.9424A66.9184 66.9184 0 0 0 25.600256 511.3344c0 24.9856 13.6192 47.7696 35.5328 59.392l109.1584 57.856-109.056 57.1904A66.56 66.56 0 0 0 25.600256 744.96c0 24.9344 13.6192 47.616 35.6352 59.136l397.312 208.5376a98.9696 98.9696 0 0 0 92.0576 0l397.2608-208.5376a66.56 66.56 0 0 0 35.6864-59.136 66.56 66.56 0 0 0-35.6352-59.136z" p-id="2305" fill="#4db6ac"></path></svg>