<?xml version="1.0" standalone="no"?><!DOCTYPE svg PUBLIC "-//W3C//DTD SVG 1.1//EN" "http://www.w3.org/Graphics/SVG/1.1/DTD/svg11.dtd"><svg t="1498575403914" class="icon" style="" viewBox="0 0 1024 1024" version="1.1" xmlns="http://www.w3.org/2000/svg" p-id="2565" xmlns:xlink="http://www.w3.org/1999/xlink" width="64" height="64"><defs><style type="text/css"></style></defs><path d="M731.421972 966.22658q-35.600253 0-118.84202 28.88671t-115.977986 28.88671q-35.600253 0-118.84202-28.88671t-113.083155-28.88671q-17.338185 0-38.495083 5.78966t-34.152838 11.055788-34.152838 13.950618q-11.548525 5.78966-17.338185 8.191754t-14.443355 5.296923-12.503203 2.89483q-3.849508-0.954678-6.744339-2.89483-3.849508-1.940152-4.342245-8.191754t1.447415-15.398033 5.78966-23.589787l10.593847-30.796066q5.78966-16.352711 11.548525-36.585727 14.443355-40.435235 26.946558-76.990166t23.09705-70.245827 17.338185-53.893116l7.699017-19.247541 698.701152 0q34.645575 193.430092 50.043608 292.56263 1.940152 13.488677 1.940152 22.142372 0 4.804186-0.492737 8.191754t-0.954678 6.251601-2.402093 5.296923-3.849508 3.356771q-5.78966 1.940152-9.639169 2.89483-1.940152 0.954678-5.296923 0.492737t-7.699017-1.940152-8.191754-2.89483-7.699017-2.402093q-6.744339-2.89483-20.202219-7.699017-26.946558-11.548525-45.239421-16.352711-5.78966-1.940152-12.99594-3.849508t-16.845448-3.849508-20.202219-4.804186q-4.804186-0.954678-9.639169-1.447415t-9.639169-1.447415-8.653695-0.954678l-9.639169-1.940152-18.292863 0zM847.861899 617.861478l-583.215903 0q-23.09705 0-40.435235-17.338185t-17.338185-42.344591q24.051728-31.750744 77.944844-116.439927 44.284743-58.697302 96.237707-58.697302l86.629334 0 29.841388-232.910649 13.488677-17.338185q8.653695-8.653695 31.288803-24.544465t42.344591-15.89077 41.851854 13.488677q5.78966 3.849508 10.593847 7.699017t9.146432 7.699017 7.699017 6.744339 6.251601 6.744339l12.503203 15.398033-28.88671 232.910649 85.64386 0q24.051728 0 51.98376 16.352711t48.134252 46.194099q53.893116 82.779826 76.035488 112.590418 0 26.946558-17.338185 43.299269t-40.435235 16.352711z" p-id="2566" fill="#4db6ac"></path></svg>