<?xml version="1.0" standalone="no"?><!DOCTYPE svg PUBLIC "-//W3C//DTD SVG 1.1//EN" "http://www.w3.org/Graphics/SVG/1.1/DTD/svg11.dtd"><svg t="1498575326376" class="icon" style="" viewBox="0 0 1024 1024" version="1.1" xmlns="http://www.w3.org/2000/svg" p-id="2044" xmlns:xlink="http://www.w3.org/1999/xlink" width="64" height="64"><defs><style type="text/css"></style></defs><path d="M713.386667 252.586667h119.466666c13.653333 0 23.893333-20.48 13.653334-30.72l-119.466667-116.053334c-10.24-10.24-30.72-3.413333-30.72 13.653334v116.053333c0 10.24 6.826667 17.066667 17.066667 17.066667z" fill="#4db6ac" p-id="2045"></path><path d="M727.04 317.44c-64.853333 0-88.746667-23.893333-92.16-95.573333V102.4H245.76c-51.2 0-71.68 23.893333-71.68 71.68v675.84c0 54.613333 23.893333 71.68 71.68 71.68h532.48c51.2 0 71.68-20.48 71.68-71.68V317.44h-122.88zM286.72 204.8h228.693333c10.24 0 17.066667 6.826667 17.066667 17.066667s-6.826667 17.066667-17.066667 17.066666H286.72c-10.24 0-17.066667-6.826667-17.066667-17.066666s6.826667-17.066667 17.066667-17.066667z m-17.066667 119.466667c0-10.24 6.826667-17.066667 17.066667-17.066667h228.693333c10.24 0 17.066667 6.826667 17.066667 17.066667s-6.826667 17.066667-17.066667 17.066666H286.72c-10.24 0-17.066667-6.826667-17.066667-17.066666z m430.08 174.08l-126.293333 276.48c-3.413333 6.826667-10.24 10.24-17.066667 10.24h-92.16c-6.826667 0-13.653333-3.413333-17.066666-10.24l-126.293334-276.48c-6.826667-10.24 3.413333-23.893333 17.066667-23.893334h44.373333c6.826667 0 13.653333 3.413333 17.066667 10.24 20.48 44.373333 105.813333 218.453333 105.813333 232.106667h6.826667c3.413333-10.24 61.44-109.226667 109.226667-232.106667 3.413333-6.826667 10.24-10.24 17.066666-10.24H682.666667c13.653333-3.413333 20.48 10.24 17.066666 23.893334z" fill="#4db6ac" p-id="2046"></path></svg>