<?xml version="1.0" standalone="no"?><!DOCTYPE svg PUBLIC "-//W3C//DTD SVG 1.1//EN" "http://www.w3.org/Graphics/SVG/1.1/DTD/svg11.dtd"><svg t="1498399286392" class="icon" style="" viewBox="0 0 1024 1024" version="1.1" xmlns="http://www.w3.org/2000/svg" p-id="3468" xmlns:xlink="http://www.w3.org/1999/xlink" width="64" height="64"><defs><style type="text/css"></style></defs><path d="M234.98752 200.45824 228.72064 200.45824c2.08896 0 4.17792 0.04096 6.26688 0.04096L234.98752 200.45824zM101.21216 219.29984C87.81824 223.10912 78.47936 235.60192 78.47936 249.89696l0 540.91776c0 19.37408 16.75264 34.2016 35.38944 31.37536 74.1376-11.30496 227.61472-48.49664 369.17248 40.18176 1.92512 1.2288 3.93216 2.21184 5.9392 3.072L489.14432 290.816C441.99936 256.24576 309.53472 160.23552 101.21216 219.29984zM919.3472 219.29984c-206.68416-58.5728-340.82816 35.38944-389.3248 70.69696l-0.16384 575.11936c1.76128-0.77824 3.4816-1.6384 5.12-2.70336 141.55776-88.6784 297.61536-51.52768 371.75296-40.18176C925.32736 825.01632 942.08 810.1888 942.08 790.85568L942.08 249.89696C942.08 235.60192 932.74112 223.10912 919.3472 219.29984z" p-id="3469" fill="#ff7043"></path></svg>