<?xml version="1.0" standalone="no"?><!DOCTYPE svg PUBLIC "-//W3C//DTD SVG 1.1//EN" "http://www.w3.org/Graphics/SVG/1.1/DTD/svg11.dtd"><svg t="1498399209927" class="icon" style="" viewBox="0 0 1024 1024" version="1.1" xmlns="http://www.w3.org/2000/svg" p-id="3034" xmlns:xlink="http://www.w3.org/1999/xlink" width="64" height="64"><defs><style type="text/css"></style></defs><path d="M511.994151 0C229.204236 0 0 199.644966 0 445.927371c0 246.288254 229.210084 445.927371 512 445.927371v132.145258s311.565461-217.781748 365.952411-266.214734c90.327138-80.355125 146.053438-190.497618 146.053438-311.863744C1024 199.644966 794.784067 0 511.994151 0m253.072732 514.49739c-37.706492 0-68.283433-29.570967-68.283433-66.06678 0-36.431478 30.576941-66.002445 68.283433-66.002445 37.724038 0 68.254189 29.570967 68.254189 66.002445-0.005849 36.495813-30.530152 66.06678-68.254189 66.06678m-255.078832 0c-37.706492 0-68.283433-29.570967-68.283433-66.06678 0-36.431478 30.576941-66.002445 68.283433-66.002445 37.712341 0 68.300979 29.570967 68.300979 66.002445 0 36.495813-30.58279 66.06678-68.300979 66.06678m-257.055688 0c-37.648005 0-68.219097-29.570967-68.219097-66.06678 0-36.431478 30.571092-66.002445 68.219097-66.002445 37.706492 0 68.277584 29.570967 68.277584 66.002445-0.005849 36.495813-30.576941 66.06678-68.277584 66.06678" p-id="3035" fill="#cddc39"></path></svg>