<?xml version="1.0" standalone="no"?><!DOCTYPE svg PUBLIC "-//W3C//DTD SVG 1.1//EN" "http://www.w3.org/Graphics/SVG/1.1/DTD/svg11.dtd"><svg t="1498319745540" class="icon" style="" viewBox="0 0 1024 1024" version="1.1" xmlns="http://www.w3.org/2000/svg" p-id="5198" xmlns:xlink="http://www.w3.org/1999/xlink" width="64" height="64"><defs><style type="text/css"></style></defs><path d="M511.969812 961.065645c-246.492974 0-446.99652-201.463408-446.99652-449.065645S265.476839 62.934355 511.969812 62.934355s447.056895 201.463408 447.056895 449.065645S758.461763 961.065645 511.969812 961.065645zM511.969812 93.63354c-229.52451 0-416.297334 187.67231-416.297334 418.36646s186.773847 418.36646 416.297334 418.36646c229.583862 0 416.357709-187.67231 416.357709-418.36646S741.553675 93.63354 511.969812 93.63354z" p-id="5199" fill="#ffffff"></path><path d="M472.755696 645.61923c-4.076852 0-7.974625-1.61887-10.852162-4.527107L344.143503 522.822486l21.705348-21.644973 106.907868 107.327424 224.607524-225.626737 21.705348 21.644973L483.608881 641.092124C480.730321 644.00036 476.833571 645.61923 472.755696 645.61923z" p-id="5200" fill="#ffffff"></path><path d="M511.969812 961.065645c-246.492974 0-446.99652-201.463408-446.99652-449.065645S265.476839 62.934355 511.969812 62.934355s447.056895 201.463408 447.056895 449.065645S758.461763 961.065645 511.969812 961.065645zM511.969812 93.63354c-229.52451 0-416.297334 187.67231-416.297334 418.36646s186.773847 418.36646 416.297334 418.36646c229.583862 0 416.357709-187.67231 416.357709-418.36646S741.553675 93.63354 511.969812 93.63354z" p-id="5201" fill="#ffffff"></path><path d="M472.755696 645.61923c-4.076852 0-7.974625-1.61887-10.852162-4.527107L344.143503 522.822486l21.705348-21.644973 106.907868 107.327424 224.607524-225.626737 21.705348 21.644973L483.608881 641.092124C480.730321 644.00036 476.833571 645.61923 472.755696 645.61923z" p-id="5202" fill="#ffffff"></path></svg>