<?xml version="1.0" standalone="no"?><!DOCTYPE svg PUBLIC "-//W3C//DTD SVG 1.1//EN" "http://www.w3.org/Graphics/SVG/1.1/DTD/svg11.dtd"><svg t="1498319786270" class="icon" style="" viewBox="0 0 1024 1024" version="1.1" xmlns="http://www.w3.org/2000/svg" p-id="5796" xmlns:xlink="http://www.w3.org/1999/xlink" width="64" height="64"><defs><style type="text/css"></style></defs><path d="M511.270894 922.872788c226.941686 0 411.583986-184.641277 411.583986-411.583986s-184.641277-411.583986-411.583986-411.583986-411.583986 184.641277-411.583986 411.583986S284.329209 922.872788 511.270894 922.872788M511.270894 957.174012c-246.254543 0-445.88521-199.630666-445.88521-445.88521s199.630666-445.88521 445.88521-445.88521 445.88521 199.630666 445.88521 445.88521S757.526461 957.174012 511.270894 957.174012L511.270894 957.174012 511.270894 957.174012zM356.918457 476.984509c-28.40084 0-51.439556-23.037692-51.439556-51.439556 0-28.41926 23.037692-51.456952 51.439556-51.456952 28.41926 0 51.456952 23.037692 51.456952 51.456952C408.376433 453.946816 385.337717 476.984509 356.918457 476.984509L356.918457 476.984509zM665.624355 476.984509c-28.41926 0-51.456952-23.037692-51.456952-51.439556 0-28.41926 23.037692-51.456952 51.456952-51.456952 28.401864 0 51.439556 23.037692 51.439556 51.456952C717.063911 453.946816 694.026218 476.984509 665.624355 476.984509L665.624355 476.984509zM339.550904 697.121208c-7.091512 6.263657-17.926278 5.615904-24.207331-1.494027-6.281053-7.091512-5.615904-17.926278 1.475608-24.207331 4.320399-3.780093 203.308429-176.275749 388.816446-0.072655 6.857175 6.532787 7.145747 17.385972 0.611937 24.24417-6.515391 6.875594-17.368576 7.145747-24.243147 0.629333-161.930019-153.813155-335.127663-5.507434-342.362438 0.809435L339.550904 697.121208" p-id="5797" fill="#ffffff"></path></svg>