<?xml version="1.0" standalone="no"?><!DOCTYPE svg PUBLIC "-//W3C//DTD SVG 1.1//EN" "http://www.w3.org/Graphics/SVG/1.1/DTD/svg11.dtd"><svg width="100%" height="100%" viewBox="0 0 1024 1024" version="1.1" xmlns="http://www.w3.org/2000/svg"><path fill="#b3b3b3" d="M510.849804 626.667599c-15.671934 0-28.379351-12.707416-28.379351-28.379351L482.470453 257.736039c0-15.671934 12.707416-28.379351 28.379351-28.379351 15.671934 0 28.379351 12.707416 28.379351 28.379351l0 340.55221C539.229155 613.960183 526.521738 626.667599 510.849804 626.667599zM510.849804 778.915096c-15.671934 0-28.379351-12.707416-28.379351-28.379351l0-14.84101c0-15.671934 12.707416-28.379351 28.379351-28.379351 15.671934 0 28.379351 12.707416 28.379351 28.379351l0 14.84101C539.229155 766.208702 526.521738 778.915096 510.849804 778.915096zM510.849804 1023.978511c-281.673218 0-510.828314-229.155097-510.828314-510.828314S229.176586 2.321882 510.849804 2.321882s510.828314 229.155097 510.828314 510.828314c0 96.861048-27.243481 191.145411-78.777181 272.652773-8.369621 13.233396-25.898857 17.196661-39.159882 8.812713-13.247722-8.383948-17.182334-25.913183-8.812713-39.159882 45.783743-72.403007 69.992097-156.197458 69.992097-242.305605 0-250.370281-203.699332-454.069613-454.069613-454.069613S56.780191 262.779915 56.780191 513.150196s203.699332 454.069613 454.069613 454.069613c104.06717 0 205.764364-36.098149 286.343587-101.641935 12.138458-9.894348 30.014594-8.051373 39.922245 4.115738 9.894348 12.152784 8.051373 30.027897-4.115738 39.922245C742.332922 983.363488 627.928313 1023.978511 510.849804 1023.978511z" /></svg>
